Patient4_TMGait_0pt7_02_right_33_EMG.mot
version=1
nRows=30
nColumns=33
inDegrees=no
endheader
time	1LAddLong	2LGlutMax	3LGlutMed	4LIliopsoas	5LSemiMemb	6LBicFemLong	7LRecFem	8LVastMed	9LVastLat	10LGasMed	11LTibAnt	12lTibPost	13LPeroneusLong	14LSol	15LExtDigLong	16LFlexDigLong	17RAddLong	18RGlutMax	19RGlutMed	20RIliopsoas	21RSemiMemb	22RBicFemLong	23RRecFem	24RVastMed	25RVastLat	26RGasMed	27RTibAnt	28RTibPost	29RPeroneusLong	30RSol	31RExtDigLong	32RFlexDigLong
37.577	-0.003204	-1.158	0.058746	0.013275	0.005188	0.003204	-0.047302	0.013123	-0.021362	0.034027	0.078735	0.001373	-0.15884	0.02182	-0.37399	0.018463	0.039673	0.15595	-0.31006	0.12116	0.10407	0.039215	0.57938	0.14481	-0.05249	-0.042114	-0.046692	0.061646	0.081329	-0.25436	-0.002899	-0.023651
37.578	-0.002441	-1.0677	0.065765	-0.032806	-0.00412	-0.001678	0.004272	0.010681	-0.008545	0.041199	0.095673	0.004425	-0.073242	-0.061646	-0.27908	0.006714	0.017853	0.3923	0.18936	0.029602	-0.06897	0.13473	0.42099	0.14206	-0.079651	-0.028992	-0.18494	-0.041656	0.31952	0.086517	-0.003052	-0.031891
37.579	-0.021515	-0.9346	0.044861	-0.00824	0.001068	-0.004272	-0.070496	0.001221	-0.017853	0.01709	-0.19928	-0.000153	0.026245	-0.077209	-0.15289	0.000153	-0.074005	0.6041	0.33173	0.072937	-0.29587	0.38818	0.5838	0.005798	-0.12329	-0.014038	-0.21454	-0.067749	-0.48355	0.28198	-0.003357	-0.039063
37.58	-0.017853	-0.7637	-0.001068	0.010986	0.001984	-0.003357	-0.050507	0.004425	-0.050354	0.032501	-0.045166	0.008698	0.007324	-0.11795	0.51727	0.003204	-0.071869	0.6842	0.4245	0.11353	-0.64697	0.29388	0.93063	-0.006561	-0.17258	-0.020142	-0.16434	-0.048065	-0.42694	0.33264	-0.00412	-0.042267
37.581	-0.024872	-0.62882	0.005341	0.000763	-0.003052	0.003204	-0.032196	-0.010986	-0.046844	0.054474	0.085754	0.007324	-0.16632	-0.088196	0.10498	-0.003815	-0.059967	0.63202	0.59769	0.1001	0.077209	-0.1535	1.046	0.11917	-0.16525	-0.00885	-0.16602	-0.03479	-0.086365	0.21988	-0.007019	-0.041504
37.582	-0.017853	-0.47806	0.013275	-0.014954	0.006561	-0.001068	-0.064697	-0.009003	-0.052032	0.046234	0.097046	0.007782	-0.19043	0.050659	0.15701	0.005646	-0.028534	0.70999	0.45303	0.062561	0.60623	-0.41351	1.0515	0.029297	-0.18143	-0.005035	-0.16678	-0.021667	0.082855	0.088654	-0.001526	-0.04364
37.583	-0.030823	-0.28763	0.016174	-0.024567	0.014191	0.008087	0.093994	-0.002594	-0.052185	0.034332	0.10437	0.010071	-0.16342	0.058746	-0.11887	-0.017395	-0.027313	0.8551	0.0383	0.089722	0.569	-0.34241	0.9697	0.057373	-0.13657	-0.048218	0.033722	-0.030823	-0.29419	0.096436	-0.002899	-0.02533
37.584	-0.016174	-0.024567	0.012512	-0.004425	0.013733	-0.002899	0.23987	-0.006104	-0.051117	0.04364	0.13886	0.00885	-0.11322	0.012512	-0.11276	-0.006866	-0.09613	0.74097	-0.24719	0.068817	0.12253	-0.084839	0.88821	0.22507	-0.22903	-0.29251	0.051727	-0.025024	0.39932	0.023041	0.000763	-0.039978
37.585	-0.016632	0.24689	0.018921	0.010071	0.021057	-0.018616	0.41534	0.000916	-0.054321	0.035553	0.12543	0.006256	-0.045013	-0.12726	0.083008	-0.020447	-0.11993	0.54962	-0.46295	0.02243	-0.37201	0.061798	0.52628	0.14679	-0.25559	-0.048065	0.018005	0.012512	0.18814	-0.002289	-0.006561	-0.027771
37.586	-0.021057	0.51361	0.033875	0.006256	0.028534	-0.016022	0.56381	0.007477	-0.06012	0.029297	-0.14877	-0.00061	0.016479	-0.18372	0.023346	-0.014496	-0.14145	0.26672	-0.70541	0.044708	-0.12131	-0.03006	0.25635	0.21668	-0.15121	0.097504	0.016327	0.026245	-0.41473	-0.096893	-0.000153	-0.040436
37.587	-0.015259	0.64499	-0.01297	-0.001984	0.023956	-0.019226	0.53253	0.008087	-0.056152	0.045319	-0.071259	0.007172	-0.026703	-0.10544	0.059204	-0.016785	-0.10956	-0.10147	-0.80246	0.051575	0.21759	-0.058136	0.32776	0.28656	-0.025787	0.12909	-0.013733	-0.0354	-0.33295	-0.13016	-0.000763	-0.037689
37.588	-0.007019	0.94894	0.0354	0.018158	0.031281	-0.015564	0.4425	0.012817	-0.036621	0.070496	0.1326	0.018921	-0.0914	-0.079956	0.27908	-0.026855	-0.059357	-0.2272	-0.72922	0.1088	0.23163	-0.13092	0.42877	0.14053	0.004883	0.10895	0.12543	-0.021667	0.12909	0.075684	0.00061	-0.035706
37.589	-0.006714	1.106	0.075836	0.042419	0.032043	-0.010529	0.22675	0.016022	-0.005951	0.070801	0.021362	0.019379	-0.098267	-0.007019	0.15503	-0.028534	-0.004883	-0.16983	-0.7547	0.08606	0.13168	-0.38498	0.52536	-0.014954	-0.021515	0.016785	0.36957	0.061951	0.17975	0.21851	-0.004578	-0.040588
37.59	-0.00061	1.2621	0.045624	0.044403	0.031433	-0.014343	0.084381	0.013123	0.02182	0.037689	-0.32684	0.00885	-0.043793	-0.009613	-0.13718	-0.027924	0.01358	-0.41412	-0.80139	0.11932	0.021362	-0.44617	0.52353	-0.083923	0.044861	-0.055237	0.43762	-0.026398	0.030823	-0.032349	-0.004578	-0.031586
37.591	0.002136	1.4491	0.019989	0.051422	0.036163	-0.022888	-0.052795	0.011139	0.019836	0.026245	0.057526	0.017395	-0.029755	0.00946	-0.28946	-0.039215	0.00473	-0.45975	-0.90118	0.07431	-0.058441	-0.29343	0.42206	-0.032806	0.19653	-0.16724	0.097504	-0.014648	0.10376	-0.32715	-0.003357	-0.028381
37.592	0.001373	1.5657	0.072784	0.083466	0.02533	-0.014343	-0.32669	0.003662	0.032959	-0.033875	0.13977	0.008698	0.043182	0.10529	-0.015411	-0.021515	-0.011444	-0.38025	-0.92453	-0.005035	-0.055389	-0.13977	0.37262	-0.059967	0.16205	-0.087585	-0.12741	0.001221	0.076447	-0.26382	-0.005798	-0.021973
37.593	0.00885	1.5756	0.008545	0.14648	0.029297	-0.026703	-0.52124	0.003204	0.030365	-0.054626	0.10635	0.01297	0.052338	0.16449	0.19409	-0.024872	-0.029907	-0.35355	-0.80414	-0.07019	-0.085602	-0.27847	0.17899	0.030823	0.11185	-0.001526	-0.18555	0.000153	-0.00824	-0.41046	-0.004883	-0.017548
37.594	0.004883	1.637	-0.009613	0.10559	0.028992	-0.011139	-0.62988	0.001678	0.049438	0.009918	-0.16251	0.006561	-0.093079	0.18356	1.225	-0.022888	-0.012207	-0.30045	-0.9494	-0.084229	0.1506	-0.19943	0.14603	0.04425	0.079193	-0.041809	0.058441	0.005493	-0.15686	0.37247	-0.002747	-0.010529
37.595	0.005951	1.692	-0.019226	0.001678	0.021057	-0.023346	-0.63583	0.00061	0.063782	0.043488	-0.14755	-0.000153	-0.12909	0.097656	0.10941	-0.036926	0.032501	-0.24185	-1.1589	-0.076752	0.11261	-0.033569	0.25146	-0.011139	-0.000153	0.022278	0.1091	-0.001373	-0.12253	0.93796	-0.001831	-0.006256
37.596	0.008392	1.7317	-0.014343	-0.048523	0.030365	-0.02655	-0.49072	0.003815	0.048981	0.036621	-0.094452	0.003052	-0.052185	0.12634	0.30456	-0.050812	0.044098	-0.36774	-1.3054	-0.030975	0.078583	-0.050049	0.16968	-0.041504	-0.044708	0.067139	0.003357	0.009155	-0.13092	0.61768	-0.001831	-0.011902
37.597	0.002289	1.7665	-0.031586	-0.05249	0.033264	-0.027771	-0.15045	0.000763	0.026703	0.038147	-0.067291	0.010529	-0.021973	0.21988	-0.58289	-0.064087	0.014038	-0.37064	-1.4496	-0.019226	-0.0177	0.22858	-0.041504	0.01358	0.040894	0.050201	-0.25681	0.015564	-0.19806	0.63355	-0.001373	-0.015564
37.598	0.00473	1.7763	0.0177	-0.042419	0.027924	-0.027618	0.058136	-0.000153	0.01709	0.029602	-0.11078	-0.001984	0.018616	0.16861	-0.41321	-0.065613	0.005646	-0.33814	-1.5422	-0.02655	-0.003052	0.10437	-0.25742	0.089111	0.12817	0.043488	-0.022583	0.005646	-0.22446	-0.10529	-0.003662	-0.013885
37.599	-0.00061	1.7856	0.032806	0.006409	0.020294	-0.034637	0.10483	-0.00061	0.005951	0.031281	-0.010529	0.007324	0.064697	0.087738	-0.36392	-0.063934	0.015717	-0.29724	-1.5628	0.012512	-0.000916	-0.006104	-0.22964	0.073547	0.1181	0.048523	0.037231	-0.046539	-0.24139	-0.93948	0.000458	-0.024719
37.6	-0.004578	1.7656	-0.027924	0.018005	0.029449	-0.029602	0.093384	-0.003815	-0.007019	0.054169	0.053253	0.007324	-0.021362	0.039368	-0.22492	-0.065613	0.040283	-0.24902	-1.299	-0.017548	-0.23041	-0.37811	-0.21072	0.14267	0.14145	0.022736	0.21729	-0.076447	-0.20279	-0.88898	-0.002441	-0.027313
37.601	-0.003967	1.6234	-0.072784	0.011749	0.025787	-0.048676	0.10498	0.001526	-0.010223	0.047455	-0.090027	0.001984	-0.042572	-0.06958	-0.27924	-0.073853	0.054016	-0.37659	-1.1867	-0.14389	-0.34439	-0.41992	-0.090637	0.12436	0.10895	0.052795	0.52139	0.041504	-0.27893	-0.44296	-0.001831	-0.019684
37.602	-0.002899	1.5361	-0.079193	-0.010681	0.02121	-0.026855	0.041962	0.001526	-0.023346	0.011902	-0.1181	0.005035	-0.01297	-0.040436	-0.2298	-0.079803	0.067749	-0.32364	-0.99075	-0.17136	-0.44434	-0.18341	-0.081787	0.033722	0.033722	0.039215	0.60928	0.01709	-0.45898	-0.21042	-0.000763	-0.024109
37.603	-0.008392	1.4827	-0.053101	-0.016479	0.032501	-0.049438	-0.003357	0.010223	-0.047455	0.021667	-0.01297	-0.009308	-0.06485	0.037537	-0.18768	-0.065613	0.07431	-0.30472	-0.36179	-0.16983	-0.3772	-0.037537	-0.11459	-0.016632	0.006409	-0.048218	0.46768	-0.001984	-0.74371	-0.055695	-0.002747	-0.02182
37.604	0.002594	1.414	-0.027618	-0.023346	0.028076	-0.033875	0.030365	0.021515	-0.066071	0.025177	-0.027313	-0.005951	-0.070801	0.044556	-0.1059	-0.081024	0.023651	-0.13794	-0.020599	-0.098724	-0.28015	0.2533	-0.14832	0.048981	0.009308	-0.09613	0.3772	-0.006256	-0.21057	-0.13519	-0.007935	-0.030975
37.605	0.00351	1.3889	-0.055084	-0.014954	0.030365	-0.031128	0.10284	0.0177	-0.066681	0.064392	-0.049591	-0.001068	-0.084839	0.015106	-0.014954	-0.068817	0.008392	0.005341	-0.095215	0.06134	-0.000305	0.29221	-0.085907	-0.049286	-0.019073	-0.092316	0.84473	0.003052	0.737	-0.10117	-0.00351	-0.011292
37.606	0.003967	1.3748	-0.049286	-0.00885	0.021515	-0.036469	0.026855	0.026245	-0.050507	0.077057	0.17288	0.000153	-0.087738	0.017853	0.031281	-0.050507	-0.006409	-0.11978	-0.24704	0.20416	0.5835	0.13001	-0.079651	-0.041809	-0.020905	-0.068665	0.96695	0.010529	0.76523	-0.066681	-0.002899	-0.016785
